[Header]
FileType HTR
DataType HTRS
FileVersion 1
NumSegments 64
NumFrames 4
DataFrameRate 30
EulerRotationOrder ZYX
CalibrationUnits mm
RotationUnits Degrees
GlobalAxisofGravity Y
BoneLengthAxis Y
ScaleFactor 1.0
[SegmentNames&Hierarchy]
Hips	GLOBAL
Spine	Hips
Spine1	Spine
Spine2	Spine1
Neck	Spine2
Head	Neck
LeftEye	Head
RightEye	Head
LeftShoulder	Spine2
LeftArm	LeftShoulder
LeftForeArm	LeftArm
LeftHand	LeftForeArm
LeftHandThumb1	LeftHand
LeftHandThumb2	LeftHandThumb1
LeftHandThumb3	LeftHandThumb2
LeftHandThumb4	LeftHandThumb3
LeftHandIndex1	LeftHand
LeftHandIndex2	LeftHandIndex1
LeftHandIndex3	LeftHandIndex2
LeftHandIndex4	LeftHandIndex3
LeftHandMiddle1	LeftHand
LeftHandMiddle2	LeftHandMiddle1
LeftHandMiddle3	LeftHandMiddle2
LeftHandMiddle4	LeftHandMiddle3
LeftHandRing1	LeftHand
LeftHandRing2	LeftHandRing1
LeftHandRing3	LeftHandRing2
LeftHandRing4	LeftHandRing3
LeftHandPinky1	LeftHand
LeftHandPinky2	LeftHandPinky1
LeftHandPinky3	LeftHandPinky2
LeftHandPinky4	LeftHandPinky3
RightShoulder	Spine2
RightArm	RightShoulder
RightForeArm	RightArm
RightHand	RightForeArm
RightHandPinky1	RightHand
RightHandPinky2	RightHandPinky1
RightHandPinky3	RightHandPinky2
RightHandPinky4	RightHandPinky3
RightHandRing1	RightHand
RightHandRing2	RightHandRing1
RightHandRing3	RightHandRing2
RightHandRing4	RightHandRing3
RightHandMiddle1	RightHand
RightHandMiddle2	RightHandMiddle1
RightHandMiddle3	RightHandMiddle2
RightHandMiddle4	RightHandMiddle3
RightHandIndex1	RightHand
RightHandIndex2	RightHandIndex1
RightHandIndex3	RightHandIndex2
RightHandIndex4	RightHandIndex3
RightHandThumb1	RightHand
RightHandThumb2	RightHandThumb1
RightHandThumb3	RightHandThumb2
RightHandThumb4	RightHandThumb3
LeftUpLeg	Hips
LeftLeg	LeftUpLeg
LeftFoot	LeftLeg
LeftToeBase	LeftFoot
RightUpLeg	Hips
RightLeg	RightUpLeg
RightFoot	RightLeg
RightToeBase	RightFoot
[BasePosition]
Hips	0	0	0	0	0	0	1
Spine	0	0	0	0	0	0	1
Spine1	0	0	0	0	0	0	1
Spine2	0	0	0	0	0	0	1
Neck	0	0	0	0	0	0	1
Head	0	0	0	0	0	0	1
LeftEye	0	0	0	0	0	0	1
RightEye	0	0	0	0	0	0	1
LeftShoulder	0	0	0	0	0	0	1
LeftArm	0	0	0	0	0	0	1
LeftForeArm	0	0	0	0	0	0	1
LeftHand	0	0	0	0	0	0	1
LeftHandThumb1	0	0	0	0	0	0	1
LeftHandThumb2	0	0	0	0	0	0	1
LeftHandThumb3	0	0	0	0	0	0	1
LeftHandThumb4	0	0	0	0	0	0	1
LeftHandIndex1	0	0	0	0	0	0	1
LeftHandIndex2	0	0	0	0	0	0	1
LeftHandIndex3	0	0	0	0	0	0	1
LeftHandIndex4	0	0	0	0	0	0	1
LeftHandMiddle1	0	0	0	0	0	0	1
LeftHandMiddle2	0	0	0	0	0	0	1
LeftHandMiddle3	0	0	0	0	0	0	1
LeftHandMiddle4	0	0	0	0	0	0	1
LeftHandRing1	0	0	0	0	0	0	1
LeftHandRing2	0	0	0	0	0	0	1
LeftHandRing3	0	0	0	0	0	0	1
LeftHandRing4	0	0	0	0	0	0	1
LeftHandPinky1	0	0	0	0	0	0	1
LeftHandPinky2	0	0	0	0	0	0	1
LeftHandPinky3	0	0	0	0	0	0	1
LeftHandPinky4	0	0	0	0	0	0	1
RightShoulder	0	0	0	0	0	0	1
RightArm	0	0	0	0	0	0	1
RightForeArm	0	0	0	0	0	0	1
RightHand	0	0	0	0	0	0	1
RightHandPinky1	0	0	0	0	0	0	1
RightHandPinky2	0	0	0	0	0	0	1
RightHandPinky3	0	0	0	0	0	0	1
RightHandPinky4	0	0	0	0	0	0	1
RightHandRing1	0	0	0	0	0	0	1
RightHandRing2	0	0	0	0	0	0	1
RightHandRing3	0	0	0	0	0	0	1
RightHandRing4	0	0	0	0	0	0	1
RightHandMiddle1	0	0	0	0	0	0	1
RightHandMiddle2	0	0	0	0	0	0	1
RightHandMiddle3	0	0	0	0	0	0	1
RightHandMiddle4	0	0	0	0	0	0	1
RightHandIndex1	0	0	0	0	0	0	1
RightHandIndex2	0	0	0	0	0	0	1
RightHandIndex3	0	0	0	0	0	0	1
RightHandIndex4	0	0	0	0	0	0	1
RightHandThumb1	0	0	0	0	0	0	1
RightHandThumb2	0	0	0	0	0	0	1
RightHandThumb3	0	0	0	0	0	0	1
RightHandThumb4	0	0	0	0	0	0	1
LeftUpLeg	0	0	0	0	0	0	1
LeftLeg	0	0	0	0	0	0	1
LeftFoot	0	0	0	0	0	0	1
LeftToeBase	0	0	0	0	0	0	1
RightUpLeg	0	0	0	0	0	0	1
RightLeg	0	0	0	0	0	0	1
RightFoot	0	0	0	0	0	0	1
RightToeBase	0	0	0	0	0	0	1
[Hips]
232	-334.59021	997.7780762	175.9404144	1.213344097	2.805077791	-6.011237144	1.0
233	-348.9957275	966.4562378	163.8910065	1.773262978	2.173808098	-6.550636292	1.0
234	-363.3272705	934.9645996	151.654007	2.762207747	0.6993814707	-6.195883274	1.0
235	-374.3570557	910.3175049	143.3913116	3.764051676	-0.2078105658	-5.592811584	1.0
[Spine]
232	0	101.8159943	1.315000057	3.805627346	-5.525949955	2.627102137	1.0
233	0	101.8159943	1.315000057	5.572273731	-4.607905865	4.149542332	1.0
234	0	101.8159943	1.315000057	7.059815884	-3.398163319	4.180540562	1.0
235	0	101.8159943	1.315000057	8.016465187	-2.194511175	3.367634296	1.0
[Spine1]
232	0	100.8349991	-10.00800037	2.161813736	-0.8128784895	1.063610077	1.0
233	0	100.8349991	-10.00800037	2.812706709	-0.6656560302	1.036888123	1.0
234	0	100.8349991	-10.00800037	3.176770687	-0.4880882204	0.8052783608	1.0
235	0	100.8349991	-10.00800037	3.274040461	-0.3173443079	0.5182932615	1.0
[Spine2]
232	0	91	-13.73399925	2.151193619	-0.7931894064	1.046429753	1.0
233	0	91	-13.73399925	2.801424503	-0.6471080184	1.019182563	1.0
234	0	91	-13.73399925	3.163223505	-0.4699273705	0.7917159796	1.0
235	0	91	-13.73399925	3.259233236	-0.2966734767	0.5115888715	1.0
[Neck]
232	0	166.7169952	-25.16200066	-1.001298547	-1.508949399	4.579729557	1.0
233	0	166.7169952	-25.16200066	-1.834522247	-0.3296205699	3.709481478	1.0
234	0	166.7169952	-25.16200066	-2.692301273	0.847158134	2.433641434	1.0
235	0	166.7169952	-25.16200066	-3.812224388	1.606870294	0.5590910912	1.0
[Head]
232	0	96.17900085	16.84999847	-3.095775604	-1.108134627	-1.201295495	1.0
233	0	96.17900085	16.84999847	-6.749950886	3.356887817	-4.416409492	1.0
234	0	96.17900085	16.84999847	-10.67877293	5.95211935	-6.240791798	1.0
235	0	96.17900085	16.84999847	-14.50358963	4.755206585	-5.184617043	1.0
[LeftEye]
232	30.6760006	64.09500122	92.83599854	0	0	0	1.0
233	30.6760006	64.09500122	92.83599854	0	0	0	1.0
234	30.6760006	64.09500122	92.83599854	0	0	0	1.0
235	30.6760006	64.09500122	92.83599854	0	0	0	1.0
[RightEye]
232	-30.6760006	64.09500122	92.83499908	0	0	0	1.0
233	-30.6760006	64.09500122	92.83499908	0	0	0	1.0
234	-30.6760006	64.09500122	92.83499908	0	0	0	1.0
235	-30.6760006	64.09500122	92.83499908	0	0	0	1.0
[LeftShoulder]
232	45.70400238	109.4599991	-26.28000069	4.434930325	-19.83333969	-8.668973923	1.0
233	45.70400238	109.4599991	-26.28000069	4.054708958	-17.16731644	-6.272099972	1.0
234	45.70400238	109.4599991	-26.28000069	3.77108264	-14.11328316	-3.750230551	1.0
235	45.70400238	109.4599991	-26.28000069	3.608981133	-11.82586384	-1.455737591	1.0
[LeftArm]
232	105.923996	-5.24600029	-22.32099915	32.61916351	19.36892128	-27.98355103	1.0
233	105.923996	-5.24600029	-22.32099915	30.77476311	29.65063286	-40.75778961	1.0
234	105.923996	-5.24600029	-22.32099915	30.03595734	34.80847168	-49.79104233	1.0
235	105.923996	-5.24600029	-22.32099915	32.46593857	35.73789215	-53.47203827	1.0
[LeftForeArm]
232	278.414978	-0.0009999999311	0	0.0001134215054	-97.90534973	-0.0003208550916	1.0
233	278.414978	-0.0009999999311	0	-0.0002401125676	-90.47455597	6.764910268e-06	1.0
234	278.414978	-0.0009999999311	0	-0.0004218176182	-87.88822937	0.0002734841837	1.0
235	278.414978	-0.0009999999311	0	-0.0002029147727	-89.41945648	-5.661990508e-05	1.0
[LeftHand]
232	283.2879944	0	0	35.13056564	-25.46419525	-15.36888599	1.0
233	283.2879944	0	0	37.73497772	-31.85529137	-24.45124054	1.0
234	283.2879944	0	0	42.44036865	-33.33839035	-33.75660324	1.0
235	283.2879944	0	0	46.56827927	-31.24153328	-38.12932587	1.0
[LeftHandThumb1]
232	24.6609993	-15.75	26.8239994	-1.173943043	-6.567950249	7.942331314	1.0
233	24.6609993	-15.75	26.8239994	-1.359598994	-7.823740005	8.448206902	1.0
234	24.6609993	-15.75	26.8239994	-1.448376179	-8.365815163	8.672726631	1.0
235	24.6609993	-15.75	26.8239994	-1.454039574	-8.393567085	8.685037613	1.0
[LeftHandThumb2]
232	32.29800034	-18.64699936	18.64699936	8.901094437	37.05043411	-15.25080299	1.0
233	32.29800034	-18.64699936	18.64699936	2.79460907	45.22232437	-25.21152115	1.0
234	32.29800034	-18.64699936	18.64699936	-1.21358645	48.34945679	-30.45582962	1.0
235	32.29800034	-18.64699936	18.64699936	-1.63551116	48.42169571	-30.89274597	1.0
[LeftHandThumb3]
232	26.52600098	-15.31499958	15.31499958	-1.028668404	35.81776428	18.9603672	1.0
233	26.52600098	-15.31499958	15.31499958	4.784433842	46.01328278	22.39716911	1.0
234	26.52600098	-15.31499958	15.31499958	7.757977009	50.3908577	24.53098679	1.0
235	26.52600098	-15.31499958	15.31499958	8.051673889	50.59095764	24.79614258	1.0
[LeftHandThumb4]
232	19.54599953	-11.28499985	11.28499985	0	0	0	1.0
233	19.54599953	-11.28499985	11.28499985	0	0	0	1.0
234	19.54599953	-11.28499985	11.28499985	0	0	0	1.0
235	19.54599953	-11.28499985	11.28499985	0	0	0	1.0
[LeftHandIndex1]
232	91.09299469	-5.170999527	22.60099792	0.05932516977	6.90612793	-53.07268524	1.0
233	91.09299469	-5.170999527	22.60099792	-1.168307662	8.753088951	-71.65014648	1.0
234	91.09299469	-5.170999527	22.60099792	-1.752001524	9.339596748	-79.79737854	1.0
235	91.09299469	-5.170999527	22.60099792	-1.783996463	9.342622757	-80.24815369	1.0
[LeftHandIndex2]
232	36.76399994	0	0	-3.655068636	5.385461807	-67.99769592	1.0
233	36.76399994	0	0	-4.661931992	5.711547375	-78.50079346	1.0
234	36.76399994	0	0	-5.121967316	5.790425301	-83.06912994	1.0
235	36.76399994	0	0	-5.147446156	5.785868645	-83.30726624	1.0
[LeftHandIndex3]
232	28.83100128	0	0	-4.797241211	5.708502769	-79.75152588	1.0
233	28.83100128	0	0	-5.972344875	5.827250481	-91.49494934	1.0
234	28.83100128	0	0	-6.493884563	5.796396732	-96.6001358	1.0
235	28.83100128	0	0	-6.520401955	5.783802032	-96.86566925	1.0
[LeftHandIndex4]
232	23.92700005	0	0	0	0	0	1.0
233	23.92700005	0	0	0	0	0	1.0
234	23.92700005	0	0	0	0	0	1.0
235	23.92700005	0	0	0	0	0	1.0
[LeftHandMiddle1]
232	95.33399963	0	0	-4.969756126	5.206971169	-60.43143463	1.0
233	95.33399963	0	0	-6.056852341	5.300716877	-70.35731506	1.0
234	95.33399963	0	0	-6.535462856	5.276903152	-74.67205048	1.0
235	95.33399963	0	0	-6.559851646	5.267124653	-74.89658356	1.0
[LeftHandMiddle2]
232	36.98199844	0	0	-5.734469891	5.792379856	-89.06842041	1.0
233	36.98199844	0	0	-7.06085825	5.697888374	-102.3230743	1.0
234	36.98199844	0	0	-7.633418083	5.551098824	-108.0861816	1.0
235	36.98199844	0	0	-7.660007477	5.529773712	-108.3885345	1.0
[LeftHandMiddle3]
232	29.50900078	0	0	-2.615895033	4.835847378	-56.35081863	1.0
233	29.50900078	0	0	-3.609414816	5.39261198	-67.66390991	1.0
234	29.50900078	0	0	-4.081341267	5.568183422	-72.58679962	1.0
235	29.50900078	0	0	-4.109577656	5.567746162	-72.84367371	1.0
[LeftHandMiddle4]
232	28.3390007	0	0	0	0	0	1.0
233	28.3390007	0	0	0	0	0	1.0
234	28.3390007	0	0	0	0	0	1.0
235	28.3390007	0	0	0	0	0	1.0
[LeftHandRing1]
232	91.04499817	-0.4390000105	-18.65100098	-6.273458958	3.046642542	-72.28212738	1.0
233	91.04499817	-0.4390000105	-18.65100098	-6.861755848	2.674759626	-77.63967896	1.0
234	91.04499817	-0.4390000105	-18.65100098	-7.115562439	2.494194984	-79.9653244	1.0
235	91.04499817	-0.4390000105	-18.65100098	-7.128239632	2.482335329	-80.08604431	1.0
[LeftHandRing2]
232	31.54000092	0	0	-4.520769596	5.649250984	-76.94932556	1.0
233	31.54000092	0	0	-5.746434212	5.828894615	-89.27765656	1.0
234	31.54000092	0	0	-6.295301437	5.816775799	-94.6379776	1.0
235	31.54000092	0	0	-6.323642731	5.804004669	-94.91691589	1.0
[LeftHandRing3]
232	29.37700081	0	0	-1.901999354	4.290063858	-47.47696686	1.0
233	29.37700081	0	0	-2.593202114	4.851755142	-56.29031372	1.0
234	29.37700081	0	0	-2.924378633	5.059946537	-60.12485123	1.0
235	29.37700081	0	0	-2.944999933	5.065534115	-60.32505798	1.0
[LeftHandRing4]
232	26.47500038	0	0	0	0	0	1.0
233	26.47500038	0	0	0	0	0	1.0
234	26.47500038	0	0	0	0	0	1.0
235	26.47500038	0	0	0	0	0	1.0
[LeftHandPinky1]
232	80.77799988	-4.887000084	-38.06099701	-13.59225082	5.635477066	-76.49488831	1.0
233	80.77799988	-4.887000084	-38.06099701	-15.1342783	5.367058754	-82.55597687	1.0
234	80.77799988	-4.887000084	-38.06099701	-15.80013752	5.226706982	-85.18782043	1.0
235	80.77799988	-4.887000084	-38.06099701	-15.83389759	5.216075897	-85.32450867	1.0
[LeftHandPinky2]
232	36	0	0	-2.294859409	4.635959625	-52.64503479	1.0
233	36	0	0	-2.416383982	4.726548672	-54.13775635	1.0
234	36	0	0	-2.470021963	4.764834881	-54.78655243	1.0
235	36	0	0	-2.472929001	4.766683102	-54.82034683	1.0
[LeftHandPinky3]
232	21.14200211	0	0	-3.936657429	5.501481056	-71.01490021	1.0
233	21.14200211	0	0	-4.64048624	5.705548286	-78.25986481	1.0
234	21.14200211	0	0	-4.955884457	5.763870716	-81.40997314	1.0
235	21.14200211	0	0	-4.973086357	5.76280117	-81.5741272	1.0
[LeftHandPinky4]
232	19.75699997	0	0	0	0	0	1.0
233	19.75699997	0	0	0	0	0	1.0
234	19.75699997	0	0	0	0	0	1.0
235	19.75699997	0	0	0	0	0	1.0
[RightShoulder]
232	-45.70000076	109.4620056	-26.28000069	2.367140532	0.789776206	-5.734978199	1.0
233	-45.70000076	109.4620056	-26.28000069	2.403859138	3.923901558	-2.698504925	1.0
234	-45.70000076	109.4620056	-26.28000069	2.325610638	7.713262558	-1.419591546	1.0
235	-45.70000076	109.4620056	-26.28000069	2.165315151	10.60939598	-1.875686884	1.0
[RightArm]
232	-105.9280014	-5.248000145	-22.32099915	58.77598572	-9.231210709	25.95961189	1.0
233	-105.9280014	-5.248000145	-22.32099915	60.05083466	-13.48055172	35.31689835	1.0
234	-105.9280014	-5.248000145	-22.32099915	58.49062347	-18.17549896	41.03408432	1.0
235	-105.9280014	-5.248000145	-22.32099915	55.14107895	-22.7798748	45.32076263	1.0
[RightForeArm]
232	-278.414978	0	0	0.0003443924361	86.92586517	0.0003962626797	1.0
233	-278.414978	0	0	7.166313299e-05	86.43706512	0.00013308505	1.0
234	-278.414978	0	0	-5.222733671e-05	86.15129089	5.842556675e-06	1.0
235	-278.414978	0	0	6.504652265e-05	85.62823486	0.0001002180434	1.0
[RightHand]
232	-283.2879944	0	0.0009999999311	32.11750793	34.84406662	11.52939034	1.0
233	-283.2879944	0	0.0009999999311	32.89813995	33.72338486	19.66648293	1.0
234	-283.2879944	0	0.0009999999311	29.36367226	33.7237587	19.4117527	1.0
235	-283.2879944	0	0.0009999999311	30.96315193	37.24045563	19.96748543	1.0
[RightHandPinky1]
232	-80.76699829	-4.885000229	-38.06000137	-14.84552288	-2.94270277	90.50311279	1.0
233	-80.76699829	-4.885000229	-38.06000137	-14.63182068	-3.678176641	86.35486603	1.0
234	-80.76699829	-4.885000229	-38.06000137	-14.51286602	-4.065218925	84.12223053	1.0
235	-80.76699829	-4.885000229	-38.06000137	-14.49635696	-4.113791466	83.83035278	1.0
[RightHandPinky2]
232	-36	0	0.0009999999311	-1.860675097	-3.712092638	53.25008774	1.0
233	-36	0	0.0009999999311	-1.926579118	-3.760360718	54.26145172	1.0
234	-36	0	0.0009999999311	-1.962291598	-3.785922527	54.80512238	1.0
235	-36	0	0.0009999999311	-1.96701014	-3.78916955	54.87606812	1.0
[RightHandPinky3]
232	-21.14200211	0	0	-2.906755686	-4.292366028	68.08625793	1.0
233	-21.14200211	0	0	-3.567465305	-4.502934933	76.71176147	1.0
234	-21.14200211	0	0	-3.93374896	-4.582777023	81.34986115	1.0
235	-21.14200211	0	0	-3.983161211	-4.585266113	81.9551239	1.0
[RightHandPinky4]
232	-19.75699997	0	0	0	0	0	1.0
233	-19.75699997	0	0	0	0	0	1.0
234	-19.75699997	0	0	0	0	0	1.0
235	-19.75699997	0	0	0	0	0	1.0
[RightHandRing1]
232	-91.03599548	-0.4390000105	-18.65100098	-6.498658657	-1.10423708	85.0750885	1.0
233	-91.03599548	-0.4390000105	-18.65100098	-6.155633926	-1.2526474	81.08108521	1.0
234	-91.03599548	-0.4390000105	-18.65100098	-5.968405247	-1.32436657	78.93379974	1.0
235	-91.03599548	-0.4390000105	-18.65100098	-5.943425179	-1.331840158	78.65362549	1.0
[RightHandRing2]
232	-31.54000092	0	0	-4.666986942	-4.629926682	90.45145416	1.0
233	-31.54000092	0	0	-4.865091801	-4.624263763	92.907341	1.0
234	-31.54000092	0	0	-4.971506119	-4.618369579	94.22740173	1.0
235	-31.54000092	0	0	-4.985349655	-4.616944313	94.39958191	1.0
[RightHandRing3]
232	-29.37700081	0	0	-1.730428576	-3.608283281	51.16483688	1.0
233	-29.37700081	0	0	-2.103997231	-3.879654884	56.89284134	1.0
234	-29.37700081	0	0	-2.314099789	-4.013028145	59.97298431	1.0
235	-29.37700081	0	0	-2.343417883	-4.027413845	60.37502289	1.0
[RightHandRing4]
232	-26.47500038	0	0	0	0	0	1.0
233	-26.47500038	0	0	0	0	0	1.0
234	-26.47500038	0	0	0	0	0	1.0
235	-26.47500038	0	0	0	0	0	1.0
[RightHandMiddle1]
232	-95.32500458	0	0	-5.490179062	-4.098510265	73.57289124	1.0
233	-95.32500458	0	0	-5.490193367	-4.098495007	73.57289886	1.0
234	-95.32500458	0	0	-5.490192413	-4.098490715	73.57289886	1.0
235	-95.32500458	0	0	-5.490176201	-4.098502159	73.57289886	1.0
[RightHandMiddle2]
232	-36.98199844	0	0	-6.026574135	-4.415486336	107.5651169	1.0
233	-36.98199844	0	0	-6.026567936	-4.415490627	107.5651169	1.0
234	-36.98199844	0	0	-6.026568413	-4.415491581	107.5651169	1.0
235	-36.98199844	0	0	-6.026572704	-4.415489674	107.5651016	1.0
[RightHandMiddle3]
232	-29.50900078	0	0	-2.239685059	-3.961936712	58.8333931	1.0
233	-29.50900078	0	0	-2.872359276	-4.281844616	67.65246582	1.0
234	-29.50900078	0	0	-3.229524374	-4.42122221	72.39532471	1.0
235	-29.50900078	0	0	-3.279105902	-4.431489468	73.01443481	1.0
[RightHandMiddle4]
232	-28.3390007	0	0.0009999999311	0	0	0	1.0
233	-28.3390007	0	0.0009999999311	0	0	0	1.0
234	-28.3390007	0	0.0009999999311	0	0	0	1.0
235	-28.3390007	0	0.0009999999311	0	0	0	1.0
[RightHandIndex1]
232	-91.08300018	-5.167999744	22.60099792	0.9233978987	-6.945295811	65.59078217	1.0
233	-91.08300018	-5.167999744	22.60099792	-0.08531165868	-7.724493027	74.03433228	1.0
234	-91.08300018	-5.167999744	22.60099792	-0.6256356239	-8.105709076	78.5799408	1.0
235	-91.08300018	-5.167999744	22.60099792	-0.6951611042	-8.146774292	79.17427826	1.0
[RightHandIndex2]
232	-36.76399994	0	0	-4.042255878	-4.593091488	82.6934433	1.0
233	-36.76399994	0	0	-4.042246819	-4.593073845	82.6934433	1.0
234	-36.76399994	0	0	-4.042233467	-4.593073845	82.6934433	1.0
235	-36.76399994	0	0	-4.04223299	-4.593086243	82.6934433	1.0
[RightHandIndex3]
232	-28.83100128	0	0	-5.126283169	-4.603965282	96.15283203	1.0
233	-28.83100128	0	0	-5.126273155	-4.603960037	96.15283203	1.0
234	-28.83100128	0	0	-5.126274586	-4.603956223	96.1528244	1.0
235	-28.83100128	0	0	-5.126284122	-4.603963852	96.15280914	1.0
[RightHandIndex4]
232	-23.92700005	0	0	0	0	0	1.0
233	-23.92700005	0	0	0	0	0	1.0
234	-23.92700005	0	0	0	0	0	1.0
235	-23.92700005	0	0	0	0	0	1.0
[RightHandThumb1]
232	-24.64799881	-15.72700024	26.82600021	-2.388241529	10.16858673	-8.28703022	1.0
233	-24.64799881	-15.72700024	26.82600021	-2.388238192	10.16858006	-8.287031174	1.0
234	-24.64799881	-15.72700024	26.82600021	-2.388238192	10.16858387	-8.28703022	1.0
235	-24.64799881	-15.72700024	26.82600021	-2.388241768	10.16858768	-8.287028313	1.0
[RightHandThumb2]
232	-32.29800034	-18.64699936	18.64699936	4.537959099	-44.91090012	14.70994949	1.0
233	-32.29800034	-18.64699936	18.64699936	0.6198017597	-48.12371826	24.64183807	1.0
234	-32.29800034	-18.64699936	18.64699936	-2.110078812	-49.49837875	30.41760063	1.0
235	-32.29800034	-18.64699936	18.64699936	-2.595982075	-49.57843399	31.26139641	1.0
[RightHandThumb3]
232	-26.52600098	-15.31399918	15.31399918	8.547543526	-45.26206589	-26.27707291	1.0
233	-26.52600098	-15.31399918	15.31399918	11.73764324	-51.77053833	-27.06230164	1.0
234	-26.52600098	-15.31399918	15.31399918	13.67824841	-55.24623489	-27.83054352	1.0
235	-26.52600098	-15.31399918	15.31399918	14.08914375	-55.65739822	-28.10249138	1.0
[RightHandThumb4]
232	-19.54599953	-11.28499985	11.28499985	0	0	0	1.0
233	-19.54599953	-11.28499985	11.28499985	0	0	0	1.0
234	-19.54599953	-11.28499985	11.28499985	0	0	0	1.0
235	-19.54599953	-11.28499985	11.28499985	0	0	0	1.0
[LeftUpLeg]
232	82.07800293	-67.51699829	-15.99599934	-20.29163551	11.42707348	-0.595656693	1.0
233	82.07800293	-67.51699829	-15.99599934	-27.81944847	13.25053883	0.8221379519	1.0
234	82.07800293	-67.51699829	-15.99599934	-36.11057663	16.80208397	3.078470707	1.0
235	82.07800293	-67.51699829	-15.99599934	-43.73617172	20.6836319	6.650283337	1.0
[LeftLeg]
232	0	-443.7049866	2.845999956	39.02084732	6.704575539	7.246412754	1.0
233	0	-443.7049866	2.845999956	50.99617386	4.79195118	7.900952339	1.0
234	0	-443.7049866	2.845999956	63.05404282	1.719033003	3.929673433	1.0
235	0	-443.7049866	2.845999956	73.64923096	-0.7693337798	-2.910018921	1.0
[LeftFoot]
232	0	-444.2789917	-29.8219986	-15.55623055	15.27310467	-3.512428999	1.0
233	0	-444.2789917	-29.8219986	-17.2093029	11.44221592	-5.205713272	1.0
234	0	-444.2789917	-29.8219986	-11.61617756	4.541487694	-11.23566818	1.0
235	0	-444.2789917	-29.8219986	-3.787696362	-0.4071088433	-19.07074928	1.0
[LeftToeBase]
232	0	-87.28699493	107.1060028	-5.44676733	-0.08630731702	-1.05902338	1.0
233	0	-87.28699493	107.1060028	-10.18625641	-0.2656055093	-1.325159192	1.0
234	0	-87.28699493	107.1060028	-18.68033028	1.257484078	4.116265297	1.0
235	0	-87.28699493	107.1060028	-21.83786392	2.687419415	8.642018318	1.0
[RightUpLeg]
232	-82.07800293	-67.51699829	-15.99599934	-11.04764462	-1.281293869	-6.170467377	1.0
233	-82.07800293	-67.51699829	-15.99599934	-17.5838089	0.3038367927	-5.452198505	1.0
234	-82.07800293	-67.51699829	-15.99599934	-25.95198441	1.257156968	-5.805048466	1.0
235	-82.07800293	-67.51699829	-15.99599934	-31.8907814	-0.2924807072	-6.156167507	1.0
[RightLeg]
232	0	-443.7049866	2.861999989	22.21418953	-7.631164551	-4.286370754	1.0
233	0	-443.7049866	2.861999989	33.26045609	-7.033101082	-5.725325584	1.0
234	0	-443.7049866	2.861999989	45.72822189	-6.243076324	-7.313051701	1.0
235	0	-443.7049866	2.861999989	53.86101913	-5.327997208	-8.026285172	1.0
[RightFoot]
232	0	-444.2770081	-29.83799934	-7.183844566	-12.52066612	11.95611954	1.0
233	0	-444.2770081	-29.83799934	-15.40501213	-10.53674507	17.22787857	1.0
234	0	-444.2770081	-29.83799934	-19.38126755	-7.138876915	19.15893936	1.0
235	0	-444.2770081	-29.83799934	-21.55586243	-4.028898239	18.11875343	1.0
[RightToeBase]
232	0	-87.28699493	107.1060028	-5.696011543	-0.04048470408	-0.219383046	1.0
233	0	-87.28699493	107.1060028	-0.6215285659	-0.002408529865	0.268761754	1.0
234	0	-87.28699493	107.1060028	0.1363199502	-0.001895506051	0.3044352531	1.0
235	0	-87.28699493	107.1060028	-0.6097073555	0.0009752321639	0.08498208225	1.0
[EndOfFile]
